# xmcd
#
# Track frame offsets:
#	150
#	21575
#	41200
#	61460
#	80795
#	107345
#	125600
#	143485
#
# Disc length: 2135 seconds
#
# Revision: 0
# Processed by: cddbd v1.5.1PL2 Copyright (c) Steve Scherf et al.
# Submitted via: dBpowerAMP V4.0
#
DISCID=6f085508
DTITLE=Regis - Gymnastics
DYEAR=1996
DGENRE=Techno
TTITLE0=We Said No
TTITLE1=Keep Planning
TTITLE2=Careless Pedestrian
TTITLE3=Translation
TTITLE4=Sand
TTITLE5=The Black Freighter
TTITLE6=Cold Water
TTITLE7=Live Extract (Recorded Live In Chicago)
EXTD=Label: Downwards\nCatalog: DNCD02
EXTT0=
EXTT1=
EXTT2=
EXTT3=
EXTT4=
EXTT5=
EXTT6=
EXTT7=
PLAYORDER=
